<?xml version="1.0" encoding="utf-8"?>
<!-- Generator: Adobe Illustrator 26.0.2, SVG Export Plug-In . SVG Version: 6.00 Build 0)  -->
<svg version="1.1" id="Layer_1" xmlns="http://www.w3.org/2000/svg" xmlns:xlink="http://www.w3.org/1999/xlink" x="0px" y="0px"
	 viewBox="0 0 244 40" style="enable-background:new 0 0 244 40;" xml:space="preserve">
<style type="text/css">
	.st0{fill:none;}
	.st1{enable-background:new    ;}
	.st2{fill:#FFEB4D;}
</style>
<g>
	<g>
		<rect x="95.1" y="11.5" class="st0" width="144" height="25.4"/>
		<g class="st1">
			<path d="M101.5,15.1v9.3h12.3v2.2h-12.3v10.1H99V12.9h16.3v2.2H101.5z"/>
			<path d="M120.5,12.9h2.5v23.8h-2.5V12.9z"/>
			<path d="M135.4,15.1H127v-2.2h19.2v2.2h-8.4v21.6h-2.5V15.1z"/>
			<path d="M170.2,12.9v23.8h-2.1l-15.3-19.3v19.3h-2.5V12.9h2.1l15.3,19.3V12.9H170.2z"/>
			<path d="M194.7,34.6v2.2h-16.8V12.9h16.3v2.2h-13.8v8.5h12.3v2.1h-12.3v8.8H194.7z"/>
			<path d="M198.4,33.8l1-1.9c1.7,1.7,4.7,2.9,7.9,2.9c4.5,0,6.4-1.9,6.4-4.2c0-6.5-14.7-2.5-14.7-11.3c0-3.5,2.7-6.5,8.8-6.5
				c2.7,0,5.5,0.8,7.4,2.1l-0.8,2c-2-1.3-4.4-2-6.5-2c-4.4,0-6.3,1.9-6.3,4.3c0,6.5,14.7,2.6,14.7,11.3c0,3.5-2.8,6.5-8.9,6.5
				C203.6,36.9,200.1,35.7,198.4,33.8z"/>
			<path d="M219.3,33.8l1-1.9c1.7,1.7,4.7,2.9,7.9,2.9c4.5,0,6.4-1.9,6.4-4.2c0-6.5-14.7-2.5-14.7-11.3c0-3.5,2.7-6.5,8.8-6.5
				c2.7,0,5.5,0.8,7.4,2.1l-0.9,2c-2-1.3-4.4-2-6.5-2c-4.4,0-6.3,1.9-6.3,4.3c0,6.5,14.7,2.6,14.7,11.3c0,3.5-2.8,6.5-8.9,6.5
				C224.6,36.9,221,35.7,219.3,33.8z"/>
		</g>
		<rect x="2" y="1" class="st0" width="95" height="40"/>
		<g class="st1">
			<path class="st2" d="M26.6,23.9H13v13.9H4.6V2.9h23.3v6.5H13v8h13.5V23.9z"/>
			<path class="st2" d="M58.8,2.9v22.8c0,2.6-0.6,4.8-1.7,6.7c-1.1,1.9-2.7,3.3-4.7,4.3s-4.5,1.5-7.3,1.5c-4.2,0-7.6-1.1-10-3.3
				s-3.7-5.2-3.7-9v-23h8.4v23.1c0.1,3.8,1.9,5.7,5.3,5.7c1.7,0,3.1-0.5,3.9-1.4c0.9-1,1.3-2.5,1.3-4.7V2.9H58.8z"/>
			<path class="st2" d="M93.1,37.8h-8.4L72.4,16.1v21.7H64V2.9h8.4l12.3,21.7V2.9h8.4V37.8z"/>
		</g>
	</g>
</g>
</svg>
